<?xml version="1.0" standalone="no"?>
<!DOCTYPE svg PUBLIC "-//W3C//DTD SVG 20010904//EN"
 "http://www.w3.org/TR/2001/REC-SVG-20010904/DTD/svg10.dtd">
<svg version="1.0" xmlns="http://www.w3.org/2000/svg"
 width="900.000000pt" height="675.000000pt" viewBox="0 0 900.000000 675.000000"
 preserveAspectRatio="xMidYMid meet">
<metadata>
Created by potrace 1.10, written by Peter Selinger 2001-2011
</metadata>
<g transform="translate(0.000000,675.000000) scale(0.100000,-0.100000)"
fill="#ff0000" stroke="none">
<path d="M6007 5078 c-30 -59 -76 -142 -112 -203 -12 -22 -34 -60 -47 -85 -14
-25 -42 -76 -63 -115 -20 -38 -41 -74 -45 -80 -4 -5 -21 -35 -37 -65 -73 -136
-106 -196 -113 -205 -7 -9 -40 -69 -113 -205 -16 -30 -33 -59 -37 -65 -7 -9
-39 -68 -113 -205 -16 -30 -33 -59 -37 -65 -7 -9 -39 -68 -113 -205 -16 -30
-33 -59 -37 -65 -7 -9 -39 -68 -113 -205 -16 -30 -33 -59 -37 -65 -7 -9 -33
-56 -108 -195 -107 -200 -250 -378 -357 -446 -16 -10 -32 -22 -35 -26 -8 -10
-180 -94 -210 -102 -14 -4 -34 -11 -45 -16 -26 -12 -143 -31 -227 -37 -69 -5
-191 13 -298 44 -59 17 -222 93 -244 115 -7 7 -24 20 -37 28 -87 57 -210 205
-268 325 -18 39 -37 77 -41 85 -4 9 -11 31 -15 50 -4 19 -11 40 -15 45 -4 6
-13 58 -19 117 -12 111 -1 301 20 339 5 10 9 25 9 34 0 14 15 52 52 135 92
201 294 388 498 462 136 49 161 53 330 53 132 0 177 -4 225 -18 93 -29 146
-49 194 -75 24 -13 49 -21 56 -18 7 2 21 22 32 43 10 21 37 70 58 108 40 73
57 105 120 220 20 39 41 75 45 80 4 6 21 35 37 65 16 30 49 90 72 133 23 42
39 82 36 88 -7 10 -208 109 -222 109 -5 0 -20 6 -35 14 -15 8 -41 17 -59 21
-19 4 -40 11 -49 16 -37 20 -240 57 -390 70 -142 13 -403 -7 -520 -40 -149
-42 -189 -54 -217 -67 -17 -8 -34 -14 -37 -14 -25 0 -322 -159 -363 -195 -18
-15 -31 -25 -98 -77 -62 -47 -265 -250 -265 -265 0 -4 -16 -26 -35 -48 -36
-41 -127 -187 -170 -273 -53 -105 -60 -124 -136 -370 -11 -35 -24 -109 -39
-227 -12 -90 -12 -290 0 -380 23 -180 25 -187 80 -360 35 -111 48 -143 92
-230 55 -110 72 -140 78 -145 3 -3 17 -23 30 -45 13 -22 29 -45 35 -52 5 -6
26 -34 45 -62 49 -70 260 -277 350 -343 113 -82 230 -149 345 -198 28 -12 59
-25 70 -30 11 -5 52 -18 90 -30 39 -12 84 -26 102 -31 17 -5 58 -15 90 -20 32
-6 78 -15 103 -19 58 -11 430 -11 495 0 156 26 191 33 200 40 6 4 29 11 52 15
24 4 45 10 48 15 3 4 21 11 41 15 20 3 44 10 53 15 9 5 39 19 66 30 123 52
293 151 383 225 126 102 204 180 317 316 48 58 182 265 237 369 75 138 101
186 108 195 4 6 25 42 45 80 21 39 49 90 63 115 13 25 35 63 47 85 36 61 82
144 111 203 45 87 44 88 187 -178 16 -30 33 -59 37 -65 7 -9 27 -46 108 -195
13 -25 31 -58 40 -75 9 -16 32 -56 50 -88 49 -83 43 -87 -127 -87 l-137 0 -30
-57 c-70 -132 -107 -199 -114 -208 -7 -9 -21 -33 -108 -195 -19 -36 -41 -74
-48 -85 -8 -11 -14 -27 -14 -37 0 -17 26 -18 464 -18 255 0 471 -3 480 -6 14
-5 116 -162 116 -178 0 -3 17 -34 38 -69 20 -35 44 -76 52 -92 l16 -30 482 -3
c311 -1 482 1 482 8 0 9 -64 134 -80 155 -7 9 -40 69 -113 205 -16 30 -33 60
-37 65 -7 9 -39 68 -113 205 -16 30 -33 60 -37 65 -4 6 -25 42 -45 80 -21 39
-48 88 -60 110 -12 22 -39 72 -59 110 -21 39 -42 75 -46 80 -4 6 -22 37 -40
70 -74 138 -103 191 -110 200 -4 6 -23 39 -42 75 -20 36 -49 90 -65 120 -17
30 -39 71 -49 90 -11 19 -21 37 -24 40 -3 3 -13 21 -24 40 -10 19 -34 64 -54
100 -19 36 -42 79 -50 95 -9 17 -18 32 -21 35 -3 3 -17 27 -31 55 -14 27 -34
66 -46 85 -20 34 -67 118 -127 230 -16 30 -33 60 -37 65 -7 9 -39 68 -113 205
-16 30 -33 60 -37 65 -7 9 -39 68 -113 205 -16 30 -33 60 -37 65 -4 6 -23 39
-42 75 -20 36 -49 91 -67 123 -17 31 -45 83 -62 115 -17 31 -35 62 -39 67 -4
6 -24 42 -45 80 -20 39 -44 78 -54 88 -17 17 -19 15 -44 -35z"/>
<path d="M1024 5048 c-3 -4 -6 -2491 -4 -3400 0 -5 191 -8 425 -8 l425 0 -2
1705 -3 1705 -418 3 c-231 1 -421 -1 -423 -5z"/>
</g>
</svg>
